<svg width="45" height="25" viewBox="0 0 45 25" fill="none" xmlns="http://www.w3.org/2000/svg">
<path d="M23.8295 8.18181C22.1523 3.41591 17.6113 0 12.2727 0C5.50227 0 0 5.50227 0 12.2727C0 19.0432 5.50227 24.5454 12.2727 24.5454C17.6113 24.5454 22.1523 21.1295 23.8295 16.3636H32.7272V24.5454H40.9091V16.3636H45V8.18181H23.8295ZM12.2727 16.3636C10.0227 16.3636 8.18181 14.5227 8.18181 12.2727C8.18181 10.0227 10.0227 8.18181 12.2727 8.18181C14.5227 8.18181 16.3636 10.0227 16.3636 12.2727C16.3636 14.5227 14.5227 16.3636 12.2727 16.3636Z" fill="#8DDFCB"/>
</svg>
